<?xml version="1.0" encoding="utf-8"?>
<!DOCTYPE svg PUBLIC "-//W3C//DTD SVG 1.1//EN" "http://www.w3.org/Graphics/SVG/1.1/DTD/svg11.dtd">

<svg version="1.1" id="Layer_1" xmlns="http://www.w3.org/2000/svg" xmlns:xlink="http://www.w3.org/1999/xlink" width="80px" viewBox="0 0 42.52 19.84">
	<g>
		<path fill="#fff" d="M38.582,8.005c1.865,0,3.393,1.673,3.393,3.717l0,0c0,2.042-1.527,3.716-3.393,3.716H24.039h-0.484   c-2.676,0-4.847-2.378-4.847-5.309c0-2.932,2.17-5.309,4.847-5.309c0,0,2.242-4.247,7.756-4.247c3.453,0,6.787,1.925,6.787,7.432   H38.582z"></path>
		<path fill="#FCFCFC" d="M20.863,11.667c1.908,0,3.471,1.71,3.471,3.8l0,0c0,2.09-1.563,3.8-3.471,3.8H5.998H5.501   c-2.736,0-4.956-2.431-4.956-5.428s2.219-5.428,4.956-5.428c0,0,2.292-4.342,7.929-4.342c3.532,0,6.939,1.968,6.939,7.598H20.863z"></path>
	</g>
</svg>