<?xml version="1.0" encoding="utf-8"?>
<!DOCTYPE svg PUBLIC "-//W3C//DTD SVG 1.1//EN" "http://www.w3.org/Graphics/SVG/1.1/DTD/svg11.dtd">

<svg version="1.1" id="Layer_1" xmlns="http://www.w3.org/2000/svg" xmlns:xlink="http://www.w3.org/1999/xlink" width="210px" viewBox="0 0 85.04 41.1">
	<g>
		<rect class="trunks" x="75.121" y="26.724" fill="#8C5F50" width="2.166" height="8.666"></rect>
		<rect class="trunks" x="67.539" y="28.89" fill="#8C5F50" width="2.168" height="6.5"></rect>
	</g>
	<g>
		<path class="trees" fill="#A0D755" d="M83.785,21.309c0,4.187-3.393,7.581-7.58,7.581s-7.582-3.395-7.582-7.581     c0-9.749,3.395-20.579,7.582-20.579S83.785,11.56,83.785,21.309z"></path>
		<path class="trees" fill="#A0D755" d="M75.121,24.933c0,3.382-2.91,6.125-6.5,6.125c-3.588,0-6.498-2.743-6.498-6.125     c0-7.873,2.91-16.622,6.498-16.622C72.211,8.311,75.121,17.06,75.121,24.933z"></path>
	</g>
	<g opacity="0.2">
		<path fill="#FFFFFF" d="M72.955,21.309c0-8.892,1.883-18.68,4.332-20.333c-0.354-0.16-0.715-0.247-1.082-0.247     c-4.188,0-7.582,10.83-7.582,20.579c0,4.187,3.395,7.581,7.582,7.581c0.369,0,0.729-0.035,1.082-0.086     C74.84,28.277,72.955,25.127,72.955,21.309z"></path>
		<path fill="#FFFFFF" d="M66.457,24.933c0-7.106,1.383-14.901,3.191-16.359c-0.334-0.157-0.676-0.263-1.025-0.263     c-3.588,0-6.5,8.749-6.5,16.622c0,3.382,2.912,6.125,6.5,6.125c0.35,0,0.691-0.034,1.025-0.084     C67.84,30.508,66.457,27.984,66.457,24.933z"></path>
	</g>
	<g>
		<rect class="trunks" x="3.466" y="35.946" fill="#8C5F50" width="1.475" height="4.424"></rect>
		<path class="trees" fill="#A0D755" d="M7.153,34.472c0,1.628-1.32,2.949-2.949,2.949S1.254,36.1,1.254,34.472c0-5.162,1.32-11.799,2.949-11.799     S7.153,29.31,7.153,34.472z"></path>
		<path opacity="0.2" fill="#FCFCFC" d="M3.466,34.472c0-4.233,0.666-9.452,1.58-11.194c-0.267-0.383-0.55-0.604-0.842-0.604    c-1.629,0-2.949,6.637-2.949,11.799c0,1.628,1.32,2.949,2.949,2.949c0.295,0,0.573-0.057,0.842-0.137    C4.135,36.919,3.466,35.806,3.466,34.472z"> </path>
	</g>
</svg>